<svg width="9" height="9" viewBox="0 0 9 9" fill="none" xmlns="http://www.w3.org/2000/svg">
<path d="M8.38941 0.846279C8.51366 0.930081 8.59478 1.02196 8.62851 1.16809C8.64252 1.31413 8.61662 1.44907 8.58243 1.59065C8.5663 1.65755 8.551 1.72464 8.53552 1.79169C8.53207 1.80652 8.52863 1.82135 8.52507 1.83663C8.48356 2.01569 8.44476 2.19533 8.40587 2.37497C8.3923 2.43764 8.37871 2.5003 8.3651 2.56297C8.34587 2.65157 8.32665 2.74018 8.30744 2.82878C8.27922 2.95897 8.25097 3.08914 8.22271 3.21932C8.14133 3.59426 8.06001 3.96922 7.9787 4.34418C7.9758 4.35754 7.9729 4.37091 7.96992 4.38468C7.96701 4.39806 7.96411 4.41144 7.96112 4.42523C7.95822 4.43863 7.95531 4.45202 7.95232 4.46582C7.94644 4.49291 7.94057 4.51999 7.9347 4.54708C7.88489 4.77673 7.83507 5.00639 7.78525 5.23604C7.75724 5.36515 7.72923 5.49426 7.70125 5.62338C7.69058 5.6726 7.67991 5.72181 7.66925 5.77103C7.66663 5.7831 7.66401 5.79518 7.66131 5.80763C7.63293 5.93856 7.60451 6.06948 7.57597 6.20038C7.57346 6.21191 7.57095 6.22344 7.56836 6.23532C7.55823 6.28177 7.5481 6.32822 7.53797 6.37467C7.50612 6.52071 7.47453 6.66681 7.44326 6.81297C7.42162 6.91412 7.39981 7.01524 7.3779 7.11634C7.36495 7.17611 7.35209 7.2359 7.33943 7.29573C7.32553 7.36142 7.31126 7.42704 7.29697 7.49266C7.29098 7.52143 7.29098 7.52143 7.28486 7.55079C7.24664 7.7237 7.19327 7.87523 7.04016 7.9769C6.9365 8.03652 6.8354 8.0587 6.71566 8.04465C6.53574 7.99679 6.36824 7.90195 6.20222 7.82023C5.98823 7.71514 5.77329 7.61403 5.55429 7.51959C5.53665 7.53293 5.51901 7.54626 5.50084 7.56C5.363 7.66407 5.22282 7.76353 5.07931 7.85977C5.00162 7.912 4.92506 7.96532 4.84947 8.0205C4.70079 8.12902 4.54822 8.23101 4.39398 8.33153C4.38345 8.33842 4.37292 8.34531 4.36207 8.35241C3.97143 8.60779 3.97143 8.60779 3.8293 8.58665C3.72899 8.55629 3.68325 8.51667 3.62435 8.43421C3.6075 8.38406 3.60493 8.3508 3.60453 8.29847C3.60427 8.27215 3.60427 8.27215 3.60401 8.2453C3.60391 8.22605 3.60381 8.20681 3.60371 8.18698C3.60354 8.16671 3.60338 8.14643 3.6032 8.12555C3.60269 8.05829 3.60232 7.99103 3.602 7.92377C3.60195 7.91232 3.60189 7.90086 3.60183 7.88906C3.60131 7.78095 3.60085 7.67284 3.60056 7.56474C3.60019 7.42664 3.59947 7.28856 3.59828 7.15047C3.59748 7.05327 3.59706 6.95608 3.59694 6.85888C3.59685 6.80088 3.5966 6.74289 3.59592 6.68489C3.59525 6.6201 3.59524 6.55533 3.59537 6.49054C3.59503 6.47147 3.59469 6.45239 3.59433 6.43274C3.59551 6.30685 3.62204 6.23845 3.70975 6.14767C3.72623 6.12919 3.74271 6.11071 3.75918 6.09222C3.77573 6.07466 3.79235 6.05715 3.80902 6.03969C3.82711 6.02051 3.84519 6.00133 3.86326 5.98213C3.87642 5.96819 3.87642 5.96819 3.88985 5.95396C3.92423 5.91732 3.95792 5.8801 3.99155 5.8428C4.06728 5.75902 4.14423 5.67642 4.22125 5.59383C4.32721 5.4802 4.43282 5.36627 4.53701 5.25105C4.60529 5.17558 4.67458 5.10109 4.74403 5.0267C4.79536 4.97165 4.84628 4.91627 4.89674 4.86043C4.97247 4.77666 5.04942 4.69406 5.12644 4.61146C5.2324 4.49784 5.33801 4.3839 5.4422 4.26868C5.51048 4.19322 5.57977 4.11873 5.64922 4.04433C5.70055 3.98928 5.75147 3.93391 5.80193 3.87806C5.86983 3.80293 5.93877 3.7288 6.00788 3.65477C6.05921 3.59972 6.11013 3.54435 6.16059 3.4885C6.23631 3.40473 6.31327 3.32213 6.39029 3.23954C6.47059 3.15343 6.55053 3.06701 6.63026 2.98038C6.64502 2.96436 6.65977 2.94833 6.67496 2.93182C6.69564 2.90922 6.69564 2.90922 6.71673 2.88617C6.7289 2.87287 6.74108 2.85958 6.75362 2.84588C6.78639 2.80969 6.78639 2.80969 6.81813 2.7602C6.80286 2.7733 6.78758 2.7864 6.77183 2.7999C6.66805 2.88865 6.56393 2.97648 6.45641 3.06077C6.39176 3.112 6.32796 3.16422 6.26413 3.21645C6.25143 3.22684 6.23873 3.23723 6.22565 3.24793C6.20085 3.26822 6.17606 3.28851 6.15126 3.3088C6.10892 3.34341 6.06645 3.37786 6.02396 3.41229C5.90824 3.50607 5.79296 3.60037 5.67762 3.69462C5.60458 3.7543 5.53152 3.81396 5.45847 3.87362C5.39669 3.92408 5.33491 3.97454 5.27315 4.02501C5.15589 4.12082 5.03854 4.21654 4.92089 4.31188C4.81999 4.39384 4.71938 4.47617 4.61872 4.55843C4.54568 4.61811 4.47262 4.67777 4.39956 4.73743C4.33779 4.78788 4.27601 4.83834 4.21425 4.88881C4.09699 4.98463 3.97964 5.08034 3.86199 5.17569C3.76109 5.25765 3.66048 5.33997 3.55982 5.42223C3.52285 5.45244 3.48587 5.48265 3.44889 5.51285C3.43696 5.52259 3.42503 5.53234 3.41274 5.54238C3.38875 5.56196 3.36477 5.58154 3.34078 5.60112C3.27829 5.65212 3.21587 5.7032 3.15355 5.7544C3.13426 5.77022 3.13426 5.77022 3.11458 5.78636C3.09026 5.80632 3.06595 5.82629 3.04166 5.8463C2.76762 6.0709 2.76762 6.0709 2.63243 6.05994C2.53851 6.04841 2.46418 6.01135 2.38079 5.96877C2.22057 5.88986 2.05878 5.81609 1.89507 5.74465C1.81587 5.71005 1.73682 5.67511 1.65774 5.64024C1.59364 5.61198 1.52949 5.58382 1.46523 5.5559C1.40591 5.53011 1.34678 5.50394 1.28776 5.47749C1.26605 5.46784 1.24429 5.45832 1.22246 5.44895C1.0611 5.37958 0.934707 5.29645 0.857549 5.1346C0.82219 5.01955 0.82193 4.89191 0.867156 4.77998C0.951964 4.62463 1.06139 4.54512 1.2192 4.46632C1.26226 4.44482 1.30497 4.42269 1.34771 4.40059C1.36954 4.38931 1.39139 4.37806 1.41325 4.36685C1.50915 4.31755 1.60297 4.265 1.69656 4.21152C1.8715 4.11217 2.04946 4.01893 2.22787 3.92592C2.37943 3.84686 2.53003 3.76672 2.6786 3.68223C2.85644 3.58111 3.03716 3.48585 3.21837 3.39086C3.24164 3.37866 3.26491 3.36646 3.28818 3.35426C3.30519 3.34534 3.30519 3.34534 3.32255 3.33624C3.45068 3.26897 3.57788 3.20003 3.70501 3.1309C3.76835 3.09647 3.83183 3.06232 3.89542 3.02835C4.06547 2.93748 4.23473 2.8456 4.40252 2.75067C4.54787 2.66847 4.69505 2.59071 4.84379 2.51471C4.95583 2.45718 5.06589 2.39687 5.17534 2.33465C5.33962 2.24133 5.50628 2.1531 5.67384 2.06577C5.83814 1.98012 6.00168 1.89377 6.16273 1.80218C6.34056 1.70106 6.52128 1.6058 6.70249 1.51082C6.72576 1.49862 6.74903 1.48642 6.7723 1.47422C6.78364 1.46827 6.79498 1.46232 6.80667 1.4562C6.93465 1.38901 7.06169 1.32015 7.18867 1.25112C7.25358 1.21584 7.31862 1.18081 7.38374 1.14592C7.40141 1.13646 7.41908 1.127 7.43728 1.11725C7.47243 1.09843 7.50759 1.07963 7.54276 1.06084C7.61934 1.0198 7.69562 0.978452 7.77096 0.9352C7.78941 0.924644 7.78941 0.924644 7.80823 0.913875C7.83028 0.901171 7.85226 0.88833 7.87412 0.875311C8.03718 0.781338 8.21737 0.766679 8.38941 0.846279Z" fill="#1670F8"/>
</svg>
